<?xml version="1.0" standalone="yes"?>
<svg xmlns="http://www.w3.org/2000/svg" width="132" height="133">
<path style="fill:#0a0908; stroke:none;" d="M0 0L0 58L1 58C2.66221 52.2538 7.48695 50.8148 13 50C15.2332 41.8118 11.8308 38.4375 12.1512 31C12.4063 25.0787 23.5027 14.6093 29 13.2222C35.5287 11.5749 39.7627 18.5204 46.7724 14.2901C50.5328 12.0208 50.0804 7.41328 52.7029 4.27855C56.7502 -0.559174 69.4097 -0.0777435 74.9846 1.57254C82.4356 3.77821 80.503 13.128 88.0154 15.5131C93.1759 17.1515 96.1671 13.2924 101 13.0316C107.228 12.6956 115.275 22.291 118.329 27C121.861 32.4484 116.961 35.6219 116.603 41C116.402 44.0263 118.185 47.14 119 50C124.513 50.8148 129.338 52.2538 131 58L132 58L132 0L0 0z"/>
<path style="fill:#8695a8; stroke:none;" d="M56 1L57 2L56 1z"/>
<path style="fill:#23548f; stroke:none;" d="M119 83C130.939 81.81 138.924 63.0983 129.297 53.7276C125.044 49.5874 119.099 51.043 117.202 43.9961C115.486 37.6176 122.427 33.174 118.721 27C115.624 21.8423 107.727 12.4692 101 12.7616C95.6658 12.9934 92.7489 17.7595 87.044 15.0648C80.9164 12.1705 82.4182 3.96442 75.956 1.804C70.5407 -0.00642395 57.0344 -0.721603 52.7276 3.70293C48.567 7.9773 50.0747 13.761 42.9961 15.6474C38.269 16.9071 35.4105 13.1793 31 12.8387C24.3458 12.3249 12.7907 23.7092 11.8773 30C11.1442 35.0491 16.019 38.5651 14.463 43.9961C12.211 51.856 3.14042 50.0554 0.804012 57.044C-0.894952 62.1259 -1.52764 75.3158 2.56404 79.4367C6.81612 83.7192 12.3839 82.0878 14.6181 89.0046C16.6558 95.3134 9.56455 99.7684 13.1636 106C16.1238 111.125 24.38 120.791 31 120.36C36.2168 120.021 39.3922 115.706 44.956 118.102C51.22 120.799 49.4105 129.401 56.044 131.427C61.282 133.027 75.2584 133.746 79.2971 129.486C82.4773 126.132 81.6356 121.171 86.1088 118.7C92.7301 115.042 96.7807 121.628 103 120.189C109.065 118.785 119.2 109.302 120.123 103C120.667 99.2875 117.574 96.4792 116.978 93C116.413 89.7086 118.429 86.219 119 83z"/>
<path style="fill:#8695a8; stroke:none;" d="M75 1L76 2L75 1M53 2L54 3L53 2M78 2L79 3L78 2M50 8L51 9L50 8M81 8L82 9L81 8M29 12L30 13L29 12M102 12L103 13L102 12M33 13L34 14L33 13M64 13L64 14L68 14L64 13M25 14L26 15L25 14M35 14L36 15L35 14M46 14L47 15L46 14M56 14L56 15L58 16L56 20L57 20L60 16L56 14z"/>
<path style="fill:#eceded; stroke:none;" d="M58 14L58 15C67.7347 22.6777 50.7428 23.4053 58 16C41.2526 9.47899 20.7232 36.083 16.0903 49C5.55376 78.3768 23.9697 110.914 54 118.101C108.702 131.193 141.189 58.4928 98 24.5177C86.0424 15.1113 72.594 14 58 14z"/>
<path style="fill:#8695a8; stroke:none;" d="M74.6667 14.3333L75.3333 14.6667L74.6667 14.3333M85 14L86 15L85 14M96 14L97 15L96 14M106 14L107 15L106 14M37 15L38 16L37 15M51.6667 15.3333L52.3333 15.6667L51.6667 15.3333z"/>
<path style="fill:#23548f; stroke:none;" d="M66 15L66 16L70 16L66 15z"/>
<path style="fill:#8695a8; stroke:none;" d="M70.3333 15.6667L70.6667 16.3333L70.3333 15.6667M79.6667 15.3333L80.3333 15.6667L79.6667 15.3333M87 15L88 16L87 15M94 15L95 16L94 15M107 15L108 16L107 15M39 16L40 17L39 16z"/>
<path style="fill:#eceded; stroke:none;" d="M41 16L42 17L41 16z"/>
<path style="fill:#8695a8; stroke:none;" d="M48.6667 16.3333L49.3333 16.6667L48.6667 16.3333z"/>
<path style="fill:#23548f; stroke:none;" d="M56 16L57 17L56 16M59 16L62 18L59 16z"/>
<path style="fill:#0a0908; stroke:none;" d="M65 16L66 17L65 16z"/>
<path style="fill:#8695a8; stroke:none;" d="M66 16L67 17L66 16z"/>
<path style="fill:#0a0908; stroke:none;" d="M74 16L74 20L75 20L74 16z"/>
<path style="fill:#23548f; stroke:none;" d="M75 16L76 17L75 16z"/>
<path style="fill:#8695a8; stroke:none;" d="M83 16L84 17L83 16z"/>
<path style="fill:#eceded; stroke:none;" d="M90 16L91 17L90 16z"/>
<path style="fill:#8695a8; stroke:none;" d="M92 16L93 17L92 16M46 17L47 18L46 17z"/>
<path style="fill:#23548f; stroke:none;" d="M55 17L56 18L55 17z"/>
<path style="fill:#eceded; stroke:none;" d="M57 17L57 22L61 21L60 17L57 17z"/>
<path style="fill:#23548f; stroke:none;" d="M64.6667 17.3333L65.3333 17.6667L64.6667 17.3333z"/>
<path style="fill:#8695a8; stroke:none;" d="M75 17L76 18L75 17M79 17L79 20L82 17L79 17M85 17L86 18L85 17M43 18L44 19L43 18M47 18L48 19L47 18z"/>
<path style="fill:#23548f; stroke:none;" d="M48 18L48 20L50 20L50 18L48 18z"/>
<path style="fill:#0a0908; stroke:none;" d="M55 18L58 23L55 18z"/>
<path style="fill:#8695a8; stroke:none;" d="M60 18L61 19L60 18z"/>
<path style="fill:#0a0908; stroke:none;" d="M61 18L61 21L62 21L61 18z"/>
<path style="fill:#8695a8; stroke:none;" d="M62 18L62 21L63 21L62 18z"/>
<path style="fill:#0a0908; stroke:none;" d="M64 18L65 22L66 22L64 18z"/>
<path style="fill:#8695a8; stroke:none;" d="M65 18L66 19L65 18M73 18L73 21L74 21L73 18z"/>
<path style="fill:#23548f; stroke:none;" d="M78 18L79 19L78 18z"/>
<path style="fill:#0a0908; stroke:none;" d="M79 18L80 19L79 18z"/>
<path style="fill:#8695a8; stroke:none;" d="M82 18L84 20L82 18z"/>
<path style="fill:#23548f; stroke:none;" d="M83 18L84 19L83 18z"/>
<path style="fill:#8695a8; stroke:none;" d="M88 18L89 19L88 18M41 19L42 20L41 19z"/>
<path style="fill:#23548f; stroke:none;" d="M65 19L66 20L65 19z"/>
<path style="fill:#8695a8; stroke:none;" d="M68 19L68 20L70 23L62 23L62 24C66.6554 23.9835 70.128 24.2253 71 19L68 19M77 19L78 20L77 19z"/>
<path style="fill:#0a0908; stroke:none;" d="M78.3333 19.6667L78.6667 20.3333L78.3333 19.6667z"/>
<path style="fill:#8695a8; stroke:none;" d="M90 19L91 20L90 19M48 20L49 21L48 20z"/>
<path style="fill:#0a0908; stroke:none;" d="M49.3333 20.6667L49.6667 21.3333L49.3333 20.6667z"/>
<path style="fill:#23548f; stroke:none;" d="M56 20L57 21L56 20M64 20L65 21L64 20z"/>
<path style="fill:#0a0908; stroke:none;" d="M69.3333 20.6667L69.6667 21.3333L69.3333 20.6667z"/>
<path style="fill:#23548f; stroke:none;" d="M74 20L73 22L75 22L74 20M77 20L79 23L77 20z"/>
<path style="fill:#8695a8; stroke:none;" d="M38 21L39 22L38 21z"/>
<path style="fill:#23548f; stroke:none;" d="M40 23L43 22L40 23z"/>
<path style="fill:#0a0908; stroke:none;" d="M43 21L43 22L46 25L47 25L43 21z"/>
<path style="fill:#8695a8; stroke:none;" d="M45 21L46 22L45 21M50 21L51 22L50 21M55 21L56 22L55 21M60 21L58 22L58 23L60 21z"/>
<path style="fill:#23548f; stroke:none;" d="M61 21L62 22L61 21M66 21L67 22L66 21M89 21L86 25L89 21z"/>
<path style="fill:#8695a8; stroke:none;" d="M93 21L94 22L93 21M36 22L37 23L36 22z"/>
<path style="fill:#eceded; stroke:none;" d="M41 22C41.5807 25.4901 42.4398 26.5474 46 26L41 22z"/>
<path style="fill:#23548f; stroke:none;" d="M44 22L45 23L44 22z"/>
<path style="fill:#8695a8; stroke:none;" d="M46 22L47 23L46 22z"/>
<path style="fill:#23548f; stroke:none;" d="M49.6667 22.3333L50.3333 22.6667L49.6667 22.3333z"/>
<path style="fill:#8695a8; stroke:none;" d="M54 22L52 26L57 28L57 27L54 26L54 22z"/>
<path style="fill:#23548f; stroke:none;" d="M56 22L57 23L56 22M60 22L61 23L60 22M67 22L67 23L70 23L67 22z"/>
<path style="fill:#8695a8; stroke:none;" d="M72 22L73 23L72 22z"/>
<path style="fill:#0a0908; stroke:none;" d="M73 22L74 23L73 22z"/>
<path style="fill:#8695a8; stroke:none;" d="M74 22L76 25L74 22z"/>
<path style="fill:#0a0908; stroke:none;" d="M89 22L89 26L90 26L89 22z"/>
<path style="fill:#8695a8; stroke:none;" d="M95 22L96 23L95 22M35 23L36 24L35 23M39 23L39 26L40 26L41 23L39 23z"/>
<path style="fill:#23548f; stroke:none;" d="M46 23L47 24L46 23z"/>
<path style="fill:#8695a8; stroke:none;" d="M49 23L50 24L49 23z"/>
<path style="fill:#0a0908; stroke:none;" d="M50.3333 23.6667L50.6667 24.3333L50.3333 23.6667M78 23L79 24L78 23z"/>
<path style="fill:#8695a8; stroke:none;" d="M86 23L87 24L86 23M88 23L87 26L88 23M96 23L97 24L96 23z"/>
<path style="fill:#23548f; stroke:none;" d="M40 24L41 25L40 24z"/>
<path style="fill:#8695a8; stroke:none;" d="M45 24L46 25L45 24z"/>
<path style="fill:#23548f; stroke:none;" d="M51 24L52 25L51 24z"/>
<path style="fill:#8695a8; stroke:none;" d="M56.6667 24.3333L57.3333 24.6667L56.6667 24.3333z"/>
<path style="fill:#23548f; stroke:none;" d="M58 24L57 26L59 26L58 24z"/>
<path style="fill:#0a0908; stroke:none;" d="M59 24L59 25L65 25L59 24z"/>
<path style="fill:#23548f; stroke:none;" d="M65.6667 24.3333L66.3333 24.6667L65.6667 24.3333z"/>
<path style="fill:#0a0908; stroke:none;" d="M67 24L67 25L73 25L67 24z"/>
<path style="fill:#23548f; stroke:none;" d="M73 24L73 26L75 26L73 24M79 24L80 25L79 24z"/>
<path style="fill:#8695a8; stroke:none;" d="M75 27L75 28L81 25L79 29L82 24L75 27z"/>
<path style="fill:#23548f; stroke:none;" d="M82 24L83 25L82 24z"/>
<path style="fill:#8695a8; stroke:none;" d="M85 24L83 25L84 28L85 28L85 24M95 24L96 25L95 24M32 25L33 26L32 25z"/>
<path style="fill:#23548f; stroke:none;" d="M35 25L37 27L35 25z"/>
<path style="fill:#8695a8; stroke:none;" d="M36 25L37 26L36 25z"/>
<path style="fill:#0a0908; stroke:none;" d="M40 25L41 26L40 25z"/>
<path style="fill:#23548f; stroke:none;" d="M46 25L47 26L46 25z"/>
<path style="fill:#8695a8; stroke:none;" d="M49 25L53 29L49 25z"/>
<path style="fill:#eceded; stroke:none;" d="M51 25L52 26L51 25z"/>
<path style="fill:#23548f; stroke:none;" d="M54 25L55 26L54 25z"/>
<path style="fill:#0a0908; stroke:none;" d="M55.6667 25.3333L56.3333 25.6667L55.6667 25.3333z"/>
<path style="fill:#8695a8; stroke:none;" d="M59 25L63 27L63 26L59 25z"/>
<path style="fill:#eceded; stroke:none;" d="M61 25L61 26L71 26L61 25z"/>
<path style="fill:#8695a8; stroke:none;" d="M69 26L69 27L73 26L69 26z"/>
<path style="fill:#0a0908; stroke:none;" d="M75.6667 25.3333L76.3333 25.6667L75.6667 25.3333z"/>
<path style="fill:#23548f; stroke:none;" d="M77 25L78 26L77 25z"/>
<path style="fill:#eceded; stroke:none;" d="M80 25L81 26L80 25M82 25L82 27L84 27L82 25z"/>
<path style="fill:#23548f; stroke:none;" d="M84 25L85 26L84 25z"/>
<path style="fill:#eceded; stroke:none;" d="M86 25L88 29L86 25z"/>
<path style="fill:#23548f; stroke:none;" d="M88 25L89 29L90 29L88 25z"/>
<path style="fill:#0a0908; stroke:none;" d="M95 25L96 26L95 25z"/>
<path style="fill:#23548f; stroke:none;" d="M96 25L97 26L96 25z"/>
<path style="fill:#8695a8; stroke:none;" d="M99 25L100 26L99 25M117 25L118 26L117 25M31 26L32 27L31 26z"/>
<path style="fill:#23548f; stroke:none;" d="M40 26L40 27L43 28L40 26z"/>
<path style="fill:#8695a8; stroke:none;" d="M42 28L42 29L46 29L46 27L47 27L48 28L42 28z"/>
<path style="fill:#0a0908; stroke:none;" d="M51.6667 26.3333L52.3333 26.6667L51.6667 26.3333z"/>
<path style="fill:#23548f; stroke:none;" d="M53 26L54 27L53 26z"/>
<path style="fill:#eceded; stroke:none;" d="M56 26L56 27L59 27L56 26z"/>
<path style="fill:#23548f; stroke:none;" d="M54 105L54 104L46 98L49 97L47 93C56.4364 95.8043 62.0619 102.487 72.9606 99.277C77.3822 97.9747 80.4799 94.3458 85 93C83.3069 95.8475 83.1506 96.2731 86 98L78 104C90.5769 106.095 102.211 87.0427 104.844 77C110.512 55.3845 97.2072 31.9978 75 27.4498C26.3692 17.4904 5.40059 90.9995 54 105z"/>
<path style="fill:#eceded; stroke:none;" d="M72 26L72 27L76 27L72 26z"/>
<path style="fill:#23548f; stroke:none;" d="M78 26L79 27L78 26z"/>
<path style="fill:#0a0908; stroke:none;" d="M79 26L80 27L79 26z"/>
<path style="fill:#23548f; stroke:none;" d="M80 26L81 27L80 26M94.6667 26.3333L95.3333 26.6667L94.6667 26.3333z"/>
<path style="fill:#8695a8; stroke:none;" d="M100 26L101 27L100 26M118 26L119 27L118 26M30 27L31 28L30 27z"/>
<path style="fill:#23548f; stroke:none;" d="M37 27L38 28L37 27z"/>
<path style="fill:#8695a8; stroke:none;" d="M40 27L41 28L40 27z"/>
<path style="fill:#0a0908; stroke:none;" d="M41 27L42 28L41 27z"/>
<path style="fill:#eceded; stroke:none;" d="M46 27L47 28L46 27z"/>
<path style="fill:#23548f; stroke:none;" d="M48.3333 27.6667L48.6667 28.3333L48.3333 27.6667z"/>
<path style="fill:#0a0908; stroke:none;" d="M49 27L50 28L49 27z"/>
<path style="fill:#23548f; stroke:none;" d="M50 27L51 28L50 27z"/>
<path style="fill:#eceded; stroke:none;" d="M53.6667 27.3333L54.3333 27.6667L53.6667 27.3333M77.6667 27.3333L78.3333 27.6667L77.6667 27.3333z"/>
<path style="fill:#0a0908; stroke:none;" d="M81.6667 27.3333L82.3333 27.6667L81.6667 27.3333z"/>
<path style="fill:#23548f; stroke:none;" d="M83.3333 27.6667L83.6667 28.3333L83.3333 27.6667z"/>
<path style="fill:#8695a8; stroke:none;" d="M92 35L90 30L87 33C91.3825 33 96.3489 39.0627 98 43L99 43L101 41L92 29L96 28C91.2402 26.6456 91.9376 31.7901 92 35z"/>
<path style="fill:#0a0908; stroke:none;" d="M94 27L95 28L94 27z"/>
<path style="fill:#8695a8; stroke:none;" d="M101 27L102 28L101 27M29 28L30 29L29 28M31 28L36 33L37 37L32 37C32 40.869 28.9363 38.5796 27 37L31 36L29 31L28 31L27 32L27 33L30 36L25 34C26.7709 38.1332 28.2182 40.4196 33 40L33 43L34 43C35.258 39.226 42.0623 32.2656 45 33L42 30L40 35L40 32L38 34L37 34L31 28z"/>
<path style="fill:#0a0908; stroke:none;" d="M32 28L33 29L32 28z"/>
<path style="fill:#23548f; stroke:none;" d="M32 30L35 28L32 30z"/>
<path style="fill:#8695a8; stroke:none;" d="M35 28L35 29L40 30L35 28z"/>
<path style="fill:#eceded; stroke:none;" d="M44 28L45 29L44 28z"/>
<path style="fill:#23548f; stroke:none;" d="M46.3333 28.6667L46.6667 29.3333L46.3333 28.6667z"/>
<path style="fill:#0a0908; stroke:none;" d="M47 28L48 29L47 28z"/>
<path style="fill:#8695a8; stroke:none;" d="M49.3333 28.6667L49.6667 29.3333L49.3333 28.6667z"/>
<path style="fill:#eceded; stroke:none;" d="M50.6667 28.3333L51.3333 28.6667L50.6667 28.3333M80.6667 28.3333L81.3333 28.6667L80.6667 28.3333z"/>
<path style="fill:#8695a8; stroke:none;" d="M82.3333 28.6667L82.6667 29.3333L82.3333 28.6667z"/>
<path style="fill:#0a0908; stroke:none;" d="M84 28L85 29L84 28z"/>
<path style="fill:#23548f; stroke:none;" d="M85.3333 28.6667L85.6667 29.3333L85.3333 28.6667z"/>
<path style="fill:#8695a8; stroke:none;" d="M86 28L87 29L86 28M88 28L89 29L88 28z"/>
<path style="fill:#0a0908; stroke:none;" d="M93 28L92 31L93 31L93 28z"/>
<path style="fill:#8695a8; stroke:none;" d="M102 28L103 29L102 28M28 29L29 30L28 29z"/>
<path style="fill:#0a0908; stroke:none;" d="M35 29L35 30L39 30L35 29z"/>
<path style="fill:#23548f; stroke:none;" d="M44.3333 29.6667L44.6667 30.3333L44.3333 29.6667z"/>
<path style="fill:#0a0908; stroke:none;" d="M45 29L46 30L45 29z"/>
<path style="fill:#8695a8; stroke:none;" d="M47.3333 29.6667L47.6667 30.3333L47.3333 29.6667z"/>
<path style="fill:#eceded; stroke:none;" d="M48 29L49 30L48 29M83 29L84 30L83 29z"/>
<path style="fill:#8695a8; stroke:none;" d="M84.3333 29.6667L84.6667 30.3333L84.3333 29.6667z"/>
<path style="fill:#0a0908; stroke:none;" d="M86 29L89 31L89 30L86 29z"/>
<path style="fill:#23548f; stroke:none;" d="M87 29L88 30L87 29M93 29L94 30L93 29z"/>
<path style="fill:#8695a8; stroke:none;" d="M103 29L104 30L103 29M27 30L28 31L27 30M36.6667 30.3333L37.3333 30.6667L36.6667 30.3333z"/>
<path style="fill:#23548f; stroke:none;" d="M38.6667 30.3333L39.3333 30.6667L38.6667 30.3333z"/>
<path style="fill:#0a0908; stroke:none;" d="M43 30L44 31L43 30z"/>
<path style="fill:#8695a8; stroke:none;" d="M45 30L46 31L45 30z"/>
<path style="fill:#eceded; stroke:none;" d="M46 30L47 31L46 30M85 30L88 32L88 31L85 30z"/>
<path style="fill:#8695a8; stroke:none;" d="M86 30L87 31L86 30M104 30L105 31L104 30M26 31L27 32L26 31z"/>
<path style="fill:#23548f; stroke:none;" d="M41 31L40 34L41 31z"/>
<path style="fill:#0a0908; stroke:none;" d="M42 31L43 32L42 31z"/>
<path style="fill:#eceded; stroke:none;" d="M44.6667 31.3333L45.3333 31.6667L44.6667 31.3333z"/>
<path style="fill:#0a0908; stroke:none;" d="M89 31L91 33L89 31z"/>
<path style="fill:#23548f; stroke:none;" d="M90 31L91 34L92 34L90 31z"/>
<path style="fill:#eceded; stroke:none;" d="M91 31L92 32L91 31z"/>
<path style="fill:#8695a8; stroke:none;" d="M103 31L100 38L101 38L104 34L105 34L103 31M105 31L106 32L105 31z"/>
<path style="fill:#eceded; stroke:none;" d="M11 32L12 33L11 32z"/>
<path style="fill:#8695a8; stroke:none;" d="M25 32L26 33L25 32z"/>
<path style="fill:#0a0908; stroke:none;" d="M28 32L29 33L28 32M40 32L41 33L40 32z"/>
<path style="fill:#eceded; stroke:none;" d="M43 32L44 33L43 32M88 32L89 33L88 32M93 32L94 33L93 32z"/>
<path style="fill:#23548f; stroke:none;" d="M94.6667 32.3333L95.3333 32.6667L94.6667 32.3333z"/>
<path style="fill:#0a0908; stroke:none;" d="M103 32L101 35L103 32z"/>
<path style="fill:#8695a8; stroke:none;" d="M106 32L107 33L106 32z"/>
<path style="fill:#eceded; stroke:none;" d="M120 32L121 33L120 32z"/>
<path style="fill:#8695a8; stroke:none;" d="M24 33L25 34L24 33z"/>
<path style="fill:#0a0908; stroke:none;" d="M29 33L31 35L29 33z"/>
<path style="fill:#23548f; stroke:none;" d="M30 33L31 34L30 33M35 33L36 34L35 33z"/>
<path style="fill:#0a0908; stroke:none;" d="M39 33L40 34L39 33z"/>
<path style="fill:#eceded; stroke:none;" d="M41 33L42 34L41 33M90 33L91 34L90 33z"/>
<path style="fill:#0a0908; stroke:none;" d="M92 33L93 34L92 33z"/>
<path style="fill:#23548f; stroke:none;" d="M103 33L104 34L103 33z"/>
<path style="fill:#8695a8; stroke:none;" d="M107 33L108 34L107 33z"/>
<path style="fill:#23548f; stroke:none;" d="M31 34L34 37L31 34z"/>
<path style="fill:#eceded; stroke:none;" d="M36 34L37 35L36 34z"/>
<path style="fill:#0a0908; stroke:none;" d="M38 34L39 35L38 34z"/>
<path style="fill:#eceded; stroke:none;" d="M40 34L41 35L40 34M91 34L92 35L91 34z"/>
<path style="fill:#0a0908; stroke:none;" d="M93 34L94 35L93 34z"/>
<path style="fill:#23548f; stroke:none;" d="M102 34L103 35L102 34z"/>
<path style="fill:#8695a8; stroke:none;" d="M13 35L14 36L13 35z"/>
<path style="fill:#23548f; stroke:none;" d="M25.3333 35.6667L25.6667 36.3333L25.3333 35.6667M29 35L30 36L29 35z"/>
<path style="fill:#8695a8; stroke:none;" d="M33 35L34 36L33 35z"/>
<path style="fill:#0a0908; stroke:none;" d="M37 35L38 36L37 35z"/>
<path style="fill:#eceded; stroke:none;" d="M39 35L40 36L39 35M92 35L93 36L92 35z"/>
<path style="fill:#0a0908; stroke:none;" d="M94 35L98 39L94 35z"/>
<path style="fill:#23548f; stroke:none;" d="M95 35L96 36L95 35z"/>
<path style="fill:#0a0908; stroke:none;" d="M100 35L101 36L100 35z"/>
<path style="fill:#8695a8; stroke:none;" d="M106 35L107 36L106 35M118 35L119 36L118 35M22 36L23 37L22 36M24 36L25 37L24 36z"/>
<path style="fill:#0a0908; stroke:none;" d="M26 36L27 37L26 36z"/>
<path style="fill:#eceded; stroke:none;" d="M29 37L29 38L33 39L32 36L29 37z"/>
<path style="fill:#23548f; stroke:none;" d="M35 36L36 37L35 36z"/>
<path style="fill:#0a0908; stroke:none;" d="M36 36L37 37L36 36z"/>
<path style="fill:#eceded; stroke:none;" d="M38 36L39 37L38 36z"/>
<path style="fill:#8695a8; stroke:none;" d="M54 36L54 37L58 37L54 36z"/>
<path style="fill:#eceded; stroke:none;" d="M54 37L54 75C54 78.9865 52.66 86.0633 55.0278 89.5008C59.0183 95.2941 74.2542 95.5893 77.3966 88.7253C79.3117 84.542 78 77.5245 78 73L78 37L54 37z"/>
<path style="fill:#8695a8; stroke:none;" d="M75 36L75 37L78 37L75 36z"/>
<path style="fill:#eceded; stroke:none;" d="M93 36L94 37L93 36z"/>
<path style="fill:#23548f; stroke:none;" d="M96 36L97 37L96 36z"/>
<path style="fill:#0a0908; stroke:none;" d="M99 36L100 37L99 36z"/>
<path style="fill:#23548f; stroke:none;" d="M105 38L108 37L105 38z"/>
<path style="fill:#8695a8; stroke:none;" d="M109 36L110 37L109 36M14 37L15 38L14 37z"/>
<path style="fill:#0a0908; stroke:none;" d="M27 37L29 39L27 37z"/>
<path style="fill:#23548f; stroke:none;" d="M28 37L29 38L28 37z"/>
<path style="fill:#eceded; stroke:none;" d="M33 37L34 38L33 37z"/>
<path style="fill:#0a0908; stroke:none;" d="M35 37L36 38L35 37z"/>
<path style="fill:#eceded; stroke:none;" d="M37 37L38 38L37 37z"/>
<path style="fill:#8695a8; stroke:none;" d="M49.6667 37.3333L50.3333 37.6667L49.6667 37.3333z"/>
<path style="fill:#f1d70e; stroke:none;" d="M54 90L54 37C49.6774 37.5582 40.8657 37.9376 38.0278 41.7029C35.4929 45.0661 37 52.9919 37 57C37 73.8643 36.8169 82.5862 54 90M78 37L78 90C95.1542 82.5987 95 73.7972 95 57C95 52.9919 96.5071 45.0661 93.9722 41.7029C91.1343 37.9376 82.3226 37.5582 78 37z"/>
<path style="fill:#8695a8; stroke:none;" d="M81.6667 37.3333L82.3333 37.6667L81.6667 37.3333z"/>
<path style="fill:#eceded; stroke:none;" d="M94 37L95 38L94 37z"/>
<path style="fill:#23548f; stroke:none;" d="M97 37L98 38L97 37M99 37L101 39L99 37z"/>
<path style="fill:#8695a8; stroke:none;" d="M106 37L107 38L106 37M117 37L118 38L117 37z"/>
<path style="fill:#23548f; stroke:none;" d="M29 38L29 40L31 40L29 38z"/>
<path style="fill:#0a0908; stroke:none;" d="M34 38L33 40L34 38z"/>
<path style="fill:#eceded; stroke:none;" d="M36 38L37 39L36 38z"/>
<path style="fill:#8695a8; stroke:none;" d="M44.6667 38.3333L45.3333 38.6667L44.6667 38.3333M86.6667 38.3333L87.3333 38.6667L86.6667 38.3333z"/>
<path style="fill:#eceded; stroke:none;" d="M95 38L96 39L95 38M99 38L100 39L99 38z"/>
<path style="fill:#23548f; stroke:none;" d="M104 38L105 39L104 38z"/>
<path style="fill:#8695a8; stroke:none;" d="M20 39L21 40L20 39M21 41L24 39L21 41z"/>
<path style="fill:#eceded; stroke:none;" d="M35 39L36 40L35 39z"/>
<path style="fill:#8695a8; stroke:none;" d="M41 39L42 40L41 39M90 39L91 40L90 39z"/>
<path style="fill:#eceded; stroke:none;" d="M96 39L97 40L96 39z"/>
<path style="fill:#0a0908; stroke:none;" d="M98 39L99 40L98 39z"/>
<path style="fill:#23548f; stroke:none;" d="M101 39L101 40L104 40L101 39z"/>
<path style="fill:#8695a8; stroke:none;" d="M109 39L110 40L109 39M111 39L112 40L111 39z"/>
<path style="fill:#eceded; stroke:none;" d="M31 40L32 41L31 40z"/>
<path style="fill:#0a0908; stroke:none;" d="M32 40L33 41L32 40z"/>
<path style="fill:#eceded; stroke:none;" d="M34 40L35 41L34 40z"/>
<path style="fill:#8695a8; stroke:none;" d="M38 40L39 41L38 40M69 40L65 49L67 49L66 52L65 50L64 50L67 75L67 51L69 52L69 51L68 47L69 47L71 49L71 40L69 40M93 40L94 41L93 40z"/>
<path style="fill:#eceded; stroke:none;" d="M97 40L98 41L97 40z"/>
<path style="fill:#0a0908; stroke:none;" d="M99 40L100 41L99 40z"/>
<path style="fill:#8695a8; stroke:none;" d="M106 41L110 43L106 41z"/>
<path style="fill:#23548f; stroke:none;" d="M108 40L109 41L108 40z"/>
<path style="fill:#0a0908; stroke:none;" d="M109 40L110 41L109 40z"/>
<path style="fill:#8695a8; stroke:none;" d="M19 41L20 42L19 41z"/>
<path style="fill:#23548f; stroke:none;" d="M21 41L22 42L21 41z"/>
<path style="fill:#8695a8; stroke:none;" d="M27 41L30 44L27 41z"/>
<path style="fill:#23548f; stroke:none;" d="M30 43L33 41L30 43z"/>
<path style="fill:#eceded; stroke:none;" d="M33 41L34 42L33 41M69 41L67 46L69 41M98 41L104 53L105 53L98 41z"/>
<path style="fill:#23548f; stroke:none;" d="M99 41L99 42L102 43L99 41z"/>
<path style="fill:#8695a8; stroke:none;" d="M112 41L113 42L112 41M20.6667 42.3333L21.3333 42.6667L20.6667 42.3333z"/>
<path style="fill:#eceded; stroke:none;" d="M32 42L26 57L27 57L32 42z"/>
<path style="fill:#0a0908; stroke:none;" d="M100 42L102 44L100 42z"/>
<path style="fill:#8695a8; stroke:none;" d="M102 43L102 44L106 43L102 43z"/>
<path style="fill:#23548f; stroke:none;" d="M108 42L106 48L107 48L108 42z"/>
<path style="fill:#8695a8; stroke:none;" d="M18 43L19 44L18 43z"/>
<path style="fill:#23548f; stroke:none;" d="M21 43L23 46L21 43z"/>
<path style="fill:#0a0908; stroke:none;" d="M30 43L31 44L30 43z"/>
<path style="fill:#8695a8; stroke:none;" d="M31 43L32 44L31 43M45 43L47 46L45 43M87 46L88 46L92 44L91 48L92 48L93 44C89.9424 43.2901 88.7316 43.3308 87 46M100 43L101 44L100 43M107 43L108 44L107 43M111 43L108 47L113 45L111 43M113 43L114 44L113 43M23 44L24 45L23 44z"/>
<path style="fill:#23548f; stroke:none;" d="M27 44L24 47L28 45L27 44z"/>
<path style="fill:#eceded; stroke:none;" d="M28 44L29 45L28 44z"/>
<path style="fill:#23548f; stroke:none;" d="M29.6667 44.3333L30.3333 44.6667L29.6667 44.3333M46 44L47 45L46 44M51.3333 44.6667L51.6667 45.3333L51.3333 44.6667z"/>
<path style="fill:#eceded; stroke:none;" d="M85 54C90.1878 53.102 90.9279 48.6314 92 44C86.8122 44.898 86.0721 49.3686 85 54z"/>
<path style="fill:#23548f; stroke:none;" d="M101.667 44.3333L102.333 44.6667L101.667 44.3333M111 44L112 45L111 44z"/>
<path style="fill:#8695a8; stroke:none;" d="M17 45L18 46L17 45z"/>
<path style="fill:#0a0908; stroke:none;" d="M23 45L24 46L23 45z"/>
<path style="fill:#8695a8; stroke:none;" d="M25 46L25 47L29 49L27 46L30 47L25 46z"/>
<path style="fill:#0a0908; stroke:none;" d="M29 45L30 46L29 45z"/>
<path style="fill:#8695a8; stroke:none;" d="M31 45L32 46L31 45z"/>
<path style="fill:#23548f; stroke:none;" d="M47 45L49 47L47 45z"/>
<path style="fill:#8695a8; stroke:none;" d="M48 45L49 46L48 45M100 45L101 46L100 45z"/>
<path style="fill:#0a0908; stroke:none;" d="M102 45L104 50L105 50L102 45z"/>
<path style="fill:#8695a8; stroke:none;" d="M103 45L104 46L103 45M106 45L107 46L106 45M114 45L115 46L114 45M117 45L118 46L117 45M19 46L17 50L19 46M23 46L24 47L23 46z"/>
<path style="fill:#eceded; stroke:none;" d="M27 46L28 47L27 46z"/>
<path style="fill:#0a0908; stroke:none;" d="M28 46L29 47L28 46z"/>
<path style="fill:#8695a8; stroke:none;" d="M49 46L49 47L52 47L49 46M102 46L103 47L102 46M16 47L17 48L16 47z"/>
<path style="fill:#23548f; stroke:none;" d="M18 47L19 48L18 47M28 47L29 48L28 47z"/>
<path style="fill:#8695a8; stroke:none;" d="M30 47L31 48L30 47z"/>
<path style="fill:#0a0908; stroke:none;" d="M49 47L51 49L49 47z"/>
<path style="fill:#23548f; stroke:none;" d="M50 47L51 48L50 47z"/>
<path style="fill:#eceded; stroke:none;" d="M68 47L68 50L69 50L68 47z"/>
<path style="fill:#8695a8; stroke:none;" d="M86.3333 47.6667L86.6667 48.3333L86.3333 47.6667M101 47L102 48L101 47M104 47L105 48L104 47M113 47L114 48L113 47M115 47L116 48L115 47z"/>
<path style="fill:#eceded; stroke:none;" d="M118 47L119 48L118 47z"/>
<path style="fill:#8695a8; stroke:none;" d="M21 48L21 51L22 51L23 48L21 48M24 48L23 52L25 50L28 51L28 50L24 48z"/>
<path style="fill:#0a0908; stroke:none;" d="M27.3333 48.6667L27.6667 49.3333L27.3333 48.6667z"/>
<path style="fill:#23548f; stroke:none;" d="M41 53L41 54L50 55C53.5923 46.2599 45.1082 50.5005 41 53z"/>
<path style="fill:#8695a8; stroke:none;" d="M103 48L104 49L103 48M110 48L112 50L110 48z"/>
<path style="fill:#23548f; stroke:none;" d="M111 48L112 49L111 48z"/>
<path style="fill:#0a0908; stroke:none;" d="M112 48L113 49L112 48z"/>
<path style="fill:#23548f; stroke:none;" d="M113 48L114 49L113 48z"/>
<path style="fill:#8695a8; stroke:none;" d="M29 49L30 50L29 49M46 49L47 50L46 49M48 49L49 50L48 49z"/>
<path style="fill:#f1d70e; stroke:none;" d="M49 49L47 50L47 51L49 49z"/>
<path style="fill:#8695a8; stroke:none;" d="M51 49L52 50L51 49z"/>
<path style="fill:#23548f; stroke:none;" d="M65 49L65 52L66 52L65 49z"/>
<path style="fill:#eceded; stroke:none;" d="M66 49L67 50L66 49z"/>
<path style="fill:#23548f; stroke:none;" d="M69 49L66 74L67 74C68.8805 67.2832 71.3593 55.5779 69 49z"/>
<path style="fill:#8695a8; stroke:none;" d="M90.3333 49.6667L90.6667 50.3333L90.3333 49.6667M102 49L103 50L102 49M105 49L104 51L105 49M107 49L107 50L110 51L107 49z"/>
<path style="fill:#23548f; stroke:none;" d="M109.667 49.3333L110.333 49.6667L109.667 49.3333z"/>
<path style="fill:#8695a8; stroke:none;" d="M9.66667 50.3333L10.3333 50.6667L9.66667 50.3333M15 50L16 51L15 50z"/>
<path style="fill:#23548f; stroke:none;" d="M17 50L18 51L17 50z"/>
<path style="fill:#0a0908; stroke:none;" d="M18 50L19 51L18 50z"/>
<path style="fill:#23548f; stroke:none;" d="M19 50L19 52L21 50L19 50z"/>
<path style="fill:#eceded; stroke:none;" d="M25 50L26 51L25 50z"/>
<path style="fill:#23548f; stroke:none;" d="M26 50L27 51L26 50z"/>
<path style="fill:#8695a8; stroke:none;" d="M44 50L45 51L44 50z"/>
<path style="fill:#0a0908; stroke:none;" d="M45 50L46 51L45 50z"/>
<path style="fill:#8695a8; stroke:none;" d="M50 50L51 51L50 50M85.3333 50.6667L85.6667 51.3333L85.3333 50.6667z"/>
<path style="fill:#23548f; stroke:none;" d="M105 50L106 51L105 50M107.667 50.3333L108.333 50.6667L107.667 50.3333z"/>
<path style="fill:#8695a8; stroke:none;" d="M116 50L117 51L116 50M121 50L122 51L121 50z"/>
<path style="fill:#eceded; stroke:none;" d="M122 50L123 51L122 50z"/>
<path style="fill:#8695a8; stroke:none;" d="M6.66667 51.3333L7.33333 51.6667L6.66667 51.3333M17.6667 51.3333L18.3333 51.6667L17.6667 51.3333z"/>
<path style="fill:#0a0908; stroke:none;" d="M20.6667 51.3333L21.3333 51.6667L20.6667 51.3333z"/>
<path style="fill:#23548f; stroke:none;" d="M22.3333 51.6667L22.6667 52.3333L22.3333 51.6667z"/>
<path style="fill:#0a0908; stroke:none;" d="M26 51L27 52L26 51z"/>
<path style="fill:#8695a8; stroke:none;" d="M28 51L29 52L28 51z"/>
<path style="fill:#0a0908; stroke:none;" d="M50 51L51 52L50 51z"/>
<path style="fill:#eceded; stroke:none;" d="M67.3333 51.6667L67.6667 52.3333L67.3333 51.6667z"/>
<path style="fill:#8695a8; stroke:none;" d="M103 51L104 52L103 51z"/>
<path style="fill:#0a0908; stroke:none;" d="M105 51L106 52L105 51z"/>
<path style="fill:#8695a8; stroke:none;" d="M106.667 51.3333L107.333 51.6667L106.667 51.3333M114 51L116 53L116 51L114 51M124.667 51.3333L125.333 51.6667L124.667 51.3333M3 52L4 53L3 52M21 52L22 53L21 52z"/>
<path style="fill:#0a0908; stroke:none;" d="M23 52L24 53L23 52z"/>
<path style="fill:#eceded; stroke:none;" d="M24.3333 52.6667L24.6667 53.3333L24.3333 52.6667z"/>
<path style="fill:#23548f; stroke:none;" d="M25.6667 52.3333L26.3333 52.6667L25.6667 52.3333z"/>
<path style="fill:#0a0908; stroke:none;" d="M42 52L43 53L42 52z"/>
<path style="fill:#8695a8; stroke:none;" d="M44 52L45 53L44 52z"/>
<path style="fill:#f1d70e; stroke:none;" d="M45 52L45 53L50 53L45 52z"/>
<path style="fill:#8695a8; stroke:none;" d="M51 52L52 53L51 52z"/>
<path style="fill:#23548f; stroke:none;" d="M64 52C63.0533 59.3308 60.6163 65.9688 64 73L65 73L64 52z"/>
<path style="fill:#8695a8; stroke:none;" d="M89.3333 52.6667L89.6667 53.3333L89.3333 52.6667z"/>
<path style="fill:#23548f; stroke:none;" d="M105 52L107 54L107 52L105 52M109 55L109 56L115 53L109 55z"/>
<path style="fill:#8695a8; stroke:none;" d="M128 52L129 53L128 52M14.3333 53.6667L14.6667 54.3333L14.3333 53.6667M16 53L15 59L16 59L16 56L19 57L19 56L18 53L16 53M23 53L24 54L23 53z"/>
<path style="fill:#0a0908; stroke:none;" d="M25.3333 53.6667L25.6667 54.3333L25.3333 53.6667z"/>
<path style="fill:#8695a8; stroke:none;" d="M26 53L27 54L26 53M40 53L40 57L47 58L49 55L49 54L40 53M69 53L69 59L70 59L69 53M84 53L89 58L89 55L89 54L84 53M104 53L104 55L106 53L104 53M111 53L112 54L111 53M117.333 53.6667L117.667 54.3333L117.333 53.6667M1 54L2 55L1 54z"/>
<path style="fill:#23548f; stroke:none;" d="M16 54L17 55L16 54z"/>
<path style="fill:#8695a8; stroke:none;" d="M24 54L25 55L24 54M27 54L28 55L27 54z"/>
<path style="fill:#0a0908; stroke:none;" d="M40 54L41 55L40 54z"/>
<path style="fill:#8695a8; stroke:none;" d="M63.3333 54.6667L63.6667 55.3333L63.3333 54.6667z"/>
<path style="fill:#eceded; stroke:none;" d="M105 54L105 57L106 57L105 54z"/>
<path style="fill:#0a0908; stroke:none;" d="M106 54L107 55L106 54z"/>
<path style="fill:#8695a8; stroke:none;" d="M107 54L105 59L106 59L107 54M110 54L111 55L110 54M112 54L113 55L112 54M130 54L131 55L130 54z"/>
<path style="fill:#23548f; stroke:none;" d="M24 55L24 57L26 55L24 55M39 55L39 65L40 65L41 55L39 55z"/>
<path style="fill:#0a0908; stroke:none;" d="M47.6667 55.3333L48.3333 55.6667L47.6667 55.3333z"/>
<path style="fill:#23548f; stroke:none;" d="M87 55L88 56L87 55M106 55L107 56L106 55z"/>
<path style="fill:#8695a8; stroke:none;" d="M110 56L110 57L117 58L110 56z"/>
<path style="fill:#23548f; stroke:none;" d="M16.3333 56.6667L16.6667 57.3333L16.3333 56.6667z"/>
<path style="fill:#8695a8; stroke:none;" d="M25 56L27 59L25 56z"/>
<path style="fill:#23548f; stroke:none;" d="M46.6667 56.3333L47.3333 56.6667L46.6667 56.3333z"/>
<path style="fill:#eceded; stroke:none;" d="M84 56L84 57L88 58L88 57L84 56z"/>
<path style="fill:#23548f; stroke:none;" d="M107 56L108 57L107 56z"/>
<path style="fill:#0a0908; stroke:none;" d="M17 57L17 58L20 58L17 57z"/>
<path style="fill:#23548f; stroke:none;" d="M20 57L23 59L20 57z"/>
<path style="fill:#8695a8; stroke:none;" d="M22 57L23 58L22 57z"/>
<path style="fill:#0a0908; stroke:none;" d="M24 57L24 60L25 60L24 57z"/>
<path style="fill:#23548f; stroke:none;" d="M43 57L42 59L44 59L43 57z"/>
<path style="fill:#0a0908; stroke:none;" d="M44 57L45 58L44 57z"/>
<path style="fill:#23548f; stroke:none;" d="M45 57L46 58L45 57z"/>
<path style="fill:#8695a8; stroke:none;" d="M84 57L85 58L84 57z"/>
<path style="fill:#23548f; stroke:none;" d="M85 57L85 58L88 59L85 57z"/>
<path style="fill:#0a0908; stroke:none;" d="M107 57L107 60L108 60L107 57z"/>
<path style="fill:#8695a8; stroke:none;" d="M13 58L13 62L14 62L13 58M19.6667 58.3333L20.3333 58.6667L19.6667 58.3333M23 58L24 61L23 58z"/>
<path style="fill:#eceded; stroke:none;" d="M25 58L25 63L26 63L25 58z"/>
<path style="fill:#f1d70e; stroke:none;" d="M41 58L42 59L41 58z"/>
<path style="fill:#8695a8; stroke:none;" d="M44 58L45 59L44 58M62 58L62 61L63 61L62 58z"/>
<path style="fill:#0a0908; stroke:none;" d="M84 58L85 60L86 60L87 58L84 58z"/>
<path style="fill:#eceded; stroke:none;" d="M106 58L106 63L107 63L106 58z"/>
<path style="fill:#8695a8; stroke:none;" d="M108 58C108.729 61.4029 110.806 60.9865 114 61L114 64L115 64L114 62L115 62L117 65L118 62L108 58M118 58L118 62L119 62L118 58z"/>
<path style="fill:#23548f; stroke:none;" d="M15 59L16 60L15 59z"/>
<path style="fill:#0a0908; stroke:none;" d="M41 59L44 62L41 59z"/>
<path style="fill:#8695a8; stroke:none;" d="M42 59L43 60L42 59M83 59L86 63L88 59L83 59z"/>
<path style="fill:#23548f; stroke:none;" d="M84 59L85 60L84 59z"/>
<path style="fill:#8695a8; stroke:none;" d="M116 59L117 60L116 59M15.6667 60.3333L16.3333 60.6667L15.6667 60.3333z"/>
<path style="fill:#23548f; stroke:none;" d="M24 60L23 63L24 60z"/>
<path style="fill:#8695a8; stroke:none;" d="M39 60L40 61L39 60M41 60L40 63L45 62L45 61L41 60z"/>
<path style="fill:#23548f; stroke:none;" d="M85 60L86 61L85 60z"/>
<path style="fill:#8695a8; stroke:none;" d="M88 60L89 61L88 60z"/>
<path style="fill:#23548f; stroke:none;" d="M107 60L108 64L109 64L107 60M114 60L114 61L117 61L114 60M42 61L43 62L42 61z"/>
<path style="fill:#0a0908; stroke:none;" d="M110 61L111 62L110 61z"/>
<path style="fill:#23548f; stroke:none;" d="M111 61L111 62L114 62L111 61z"/>
<path style="fill:#8695a8; stroke:none;" d="M24 62L24 72L25 72L24 62z"/>
<path style="fill:#23548f; stroke:none;" d="M44.6667 62.3333L45.3333 62.6667L44.6667 62.3333z"/>
<path style="fill:#8695a8; stroke:none;" d="M107 62L107 71L108 71L107 62M110.333 62.6667L110.667 63.3333L110.333 62.6667z"/>
<path style="fill:#0a0908; stroke:none;" d="M23 63L23 70L24 70L23 63z"/>
<path style="fill:#f1d70e; stroke:none;" d="M40 63L40 64L46 65L40 63z"/>
<path style="fill:#8695a8; stroke:none;" d="M45 63L47 65L45 63z"/>
<path style="fill:#0a0908; stroke:none;" d="M46 63L47 64L46 63z"/>
<path style="fill:#23548f; stroke:none;" d="M113 63L114 64L113 63z"/>
<path style="fill:#8695a8; stroke:none;" d="M40 64L41 65L40 64z"/>
<path style="fill:#0a0908; stroke:none;" d="M47 64L49 66L47 64z"/>
<path style="fill:#8695a8; stroke:none;" d="M87 64L89 69L87 64z"/>
<path style="fill:#0a0908; stroke:none;" d="M108 64L108 69L109 69L108 64z"/>
<path style="fill:#23548f; stroke:none;" d="M110 64L111 65L110 64z"/>
<path style="fill:#8695a8; stroke:none;" d="M20 65L21 68L22 68L20 65z"/>
<path style="fill:#23548f; stroke:none;" d="M21 65L22 66L21 65z"/>
<path style="fill:#0a0908; stroke:none;" d="M40 65L41 66L40 65z"/>
<path style="fill:#23548f; stroke:none;" d="M41 65L42 68L43 68L48 66L41 65z"/>
<path style="fill:#8695a8; stroke:none;" d="M110.667 65.3333L111.333 65.6667L110.667 65.3333M40 66L41 67L40 66z"/>
<path style="fill:#f1d70e; stroke:none;" d="M42 66L42 67L49 67L42 66z"/>
<path style="fill:#23548f; stroke:none;" d="M49 66L50 67L49 66z"/>
<path style="fill:#8695a8; stroke:none;" d="M84.3333 66.6667L84.6667 67.3333L84.3333 66.6667M41 67L42 68L41 67M42 68L42 69L45 70L51 68L42 68z"/>
<path style="fill:#0a0908; stroke:none;" d="M49 67L50 68L49 67z"/>
<path style="fill:#8695a8; stroke:none;" d="M68 67L68 71L69 71L68 67z"/>
<path style="fill:#23548f; stroke:none;" d="M84 70L89 70C86.8854 68.073 85.8285 67.6308 84 70M110.333 67.6667L110.667 68.3333L110.333 67.6667z"/>
<path style="fill:#8695a8; stroke:none;" d="M111 69L117 68L116 71L118 67L111 69M14 68L14 71L15 71L14 68z"/>
<path style="fill:#23548f; stroke:none;" d="M15 68L15 70L22 70L22 68L15 68z"/>
<path style="fill:#0a0908; stroke:none;" d="M43 68L45 70L43 68z"/>
<path style="fill:#23548f; stroke:none;" d="M44 68L45 69L44 68M50 68L51 69L50 68M113 68L114 72L115 72L117 69L113 68z"/>
<path style="fill:#f1d70e; stroke:none;" d="M46 69L46 70L50 70L46 69z"/>
<path style="fill:#0a0908; stroke:none;" d="M50.3333 69.6667L50.6667 70.3333L50.3333 69.6667M85 72L88 69L85 72z"/>
<path style="fill:#23548f; stroke:none;" d="M108 69L107 74L108 74L108 69z"/>
<path style="fill:#eceded; stroke:none;" d="M114 69L115 71L116 71L117 69L114 69z"/>
<path style="fill:#8695a8; stroke:none;" d="M0 70L1 71L0 70M21 70L20 73L21 70z"/>
<path style="fill:#23548f; stroke:none;" d="M23 70L24 74L25 74L23 70M45 70L46 71L45 70z"/>
<path style="fill:#0a0908; stroke:none;" d="M46 70L47 71L46 70z"/>
<path style="fill:#23548f; stroke:none;" d="M47 72L50 71L49 73L50 73L51 71L47 72z"/>
<path style="fill:#8695a8; stroke:none;" d="M62 70L63 71L62 70M84 70L88 74L84 70z"/>
<path style="fill:#eceded; stroke:none;" d="M106 70L106 75L107 75L106 70z"/>
<path style="fill:#8695a8; stroke:none;" d="M111 70L112 71L111 70z"/>
<path style="fill:#0a0908; stroke:none;" d="M112 70L113 71L112 70z"/>
<path style="fill:#8695a8; stroke:none;" d="M114 70L115 71L114 70z"/>
<path style="fill:#eceded; stroke:none;" d="M25 71L25 75L26 75L25 71z"/>
<path style="fill:#8695a8; stroke:none;" d="M46 71L47 72L46 71z"/>
<path style="fill:#f1d70e; stroke:none;" d="M48 71L49 72L48 71z"/>
<path style="fill:#8695a8; stroke:none;" d="M49 71L50 72L49 71z"/>
<path style="fill:#0a0908; stroke:none;" d="M67 71L68 72L67 71z"/>
<path style="fill:#23548f; stroke:none;" d="M87 71L88 72L87 71M110.667 71.3333L111.333 71.6667L110.667 71.3333z"/>
<path style="fill:#0a0908; stroke:none;" d="M115 71L116 72L115 71z"/>
<path style="fill:#23548f; stroke:none;" d="M116 71L117 72L116 71z"/>
<path style="fill:#8695a8; stroke:none;" d="M118 71L118 75L119 75L118 71M13 72L13 75L14 75L13 72z"/>
<path style="fill:#0a0908; stroke:none;" d="M21 72L17 75L17 76L21 72z"/>
<path style="fill:#8695a8; stroke:none;" d="M47 72L49 74L47 72z"/>
<path style="fill:#0a0908; stroke:none;" d="M48 72L49 73L48 72M66 72L67 73L66 72z"/>
<path style="fill:#23548f; stroke:none;" d="M84 72L85 73L84 72z"/>
<path style="fill:#8695a8; stroke:none;" d="M108 72L109 79L113 79L113 78L111 73L108 72z"/>
<path style="fill:#23548f; stroke:none;" d="M19 73L20 74L19 73M21 73L22 74L21 73z"/>
<path style="fill:#8695a8; stroke:none;" d="M22 73L24 75L24 73L22 73z"/>
<path style="fill:#23548f; stroke:none;" d="M46 73L49 75L46 73z"/>
<path style="fill:#0a0908; stroke:none;" d="M49.3333 73.6667L49.6667 74.3333L49.3333 73.6667z"/>
<path style="fill:#8695a8; stroke:none;" d="M83 73L83 77L84 77L83 73z"/>
<path style="fill:#eceded; stroke:none;" d="M84 73L82 83C85.9581 80.5956 86.6318 77.4628 87 73L84 73z"/>
<path style="fill:#8695a8; stroke:none;" d="M17 74L18 75L17 74M20 74L18 77L19 78L20 78L21 78L20 74z"/>
<path style="fill:#0a0908; stroke:none;" d="M24.3333 74.6667L24.6667 75.3333L24.3333 74.6667z"/>
<path style="fill:#8695a8; stroke:none;" d="M26 74L25 77L26 74z"/>
<path style="fill:#23548f; stroke:none;" d="M44 74L50 78L51 74L50 74C47.8165 76.169 46.1213 76.2476 44 74z"/>
<path style="fill:#0a0908; stroke:none;" d="M45.6667 74.3333L46.3333 74.6667L45.6667 74.3333z"/>
<path style="fill:#8695a8; stroke:none;" d="M105 74L107 79L108 79L105 74z"/>
<path style="fill:#0a0908; stroke:none;" d="M107.333 74.6667L107.667 75.3333L107.333 74.6667z"/>
<path style="fill:#23548f; stroke:none;" d="M110 74L111 75L110 74z"/>
<path style="fill:#8695a8; stroke:none;" d="M111 74L112 75L111 74M131 74L132 75L131 74z"/>
<path style="fill:#eceded; stroke:none;" d="M0 75L1 76L0 75z"/>
<path style="fill:#23548f; stroke:none;" d="M16 75L16 77L18 77L16 75z"/>
<path style="fill:#8695a8; stroke:none;" d="M42 75L43 76L42 75M44 75L45 76L44 75z"/>
<path style="fill:#f1d70e; stroke:none;" d="M45 75L45 76L50 76L45 75z"/>
<path style="fill:#23548f; stroke:none;" d="M112 76L112 77L116 76L112 76z"/>
<path style="fill:#eceded; stroke:none;" d="M131 75L132 76L131 75z"/>
<path style="fill:#0a0908; stroke:none;" d="M0 76L0 133L62 133L62 132C50.2501 131.748 54.0772 123.186 45.9421 118.688C38.7191 114.695 33.5743 122.853 27 119.282C21.7147 116.411 12.4537 108.587 12.2894 102C12.1592 96.7852 16.6846 93.5572 14.5015 88.0185C12.0107 81.6988 4.01463 81.4464 0 76z"/>
<path style="fill:#8695a8; stroke:none;" d="M15 76L16 77L15 76M22 76L23 77L22 76z"/>
<path style="fill:#23548f; stroke:none;" d="M24 76L24 78L26 78L24 76z"/>
<path style="fill:#eceded; stroke:none;" d="M26 76L26 79L27 79L26 76z"/>
<path style="fill:#23548f; stroke:none;" d="M41 76L40 78L41 76z"/>
<path style="fill:#0a0908; stroke:none;" d="M42.6667 76.3333L43.3333 76.6667L42.6667 76.3333z"/>
<path style="fill:#8695a8; stroke:none;" d="M50 76L51 77L50 76z"/>
<path style="fill:#eceded; stroke:none;" d="M105 76L105 79L106 79L105 76z"/>
<path style="fill:#23548f; stroke:none;" d="M107 76L108 77L107 76z"/>
<path style="fill:#8695a8; stroke:none;" d="M115 76L117 78L117 76L115 76z"/>
<path style="fill:#0a0908; stroke:none;" d="M131 76C128.579 82.6433 121.009 81.0892 118.059 87.0579C114.919 93.4129 119.821 96.0641 119.929 102C120.045 108.376 109.388 117.558 104 119.792C97.6627 122.419 93.0462 114.674 86.0579 118.537C77.3672 123.341 81.7087 131.893 69 132L69 133L132 133L132 94L131 76z"/>
<path style="fill:#23548f; stroke:none;" d="M21.6667 77.3333L22.3333 77.6667L21.6667 77.3333z"/>
<path style="fill:#8695a8; stroke:none;" d="M39.3333 77.6667L39.6667 78.3333L39.3333 77.6667M41 77L42 78L41 77M47 77L49 79L47 77z"/>
<path style="fill:#0a0908; stroke:none;" d="M48 77L49 78L48 77z"/>
<path style="fill:#23548f; stroke:none;" d="M63 77L63 78L68 78L63 77z"/>
<path style="fill:#8695a8; stroke:none;" d="M86 77L86 80L87 80L86 77z"/>
<path style="fill:#23548f; stroke:none;" d="M106 77L107 78L106 77M109 77L110 78L109 77z"/>
<path style="fill:#0a0908; stroke:none;" d="M112 77L113 78L112 77z"/>
<path style="fill:#8695a8; stroke:none;" d="M14.3333 78.6667L14.6667 79.3333L14.3333 78.6667M22 79L26 82L26 81L25 78L22 79z"/>
<path style="fill:#0a0908; stroke:none;" d="M25.3333 78.6667L25.6667 79.3333L25.3333 78.6667z"/>
<path style="fill:#8695a8; stroke:none;" d="M27 78L26 80L28 80L27 78z"/>
<path style="fill:#23548f; stroke:none;" d="M47 78L48 79L47 78z"/>
<path style="fill:#0a0908; stroke:none;" d="M64 78L59 88L72 89L67 78L64 78z"/>
<path style="fill:#8695a8; stroke:none;" d="M67 78L67 81L68 81L67 78M82 78L82 81L83 81L82 78M104 78L104 80L106 80L104 78z"/>
<path style="fill:#0a0908; stroke:none;" d="M106.333 78.6667L106.667 79.3333L106.333 78.6667z"/>
<path style="fill:#23548f; stroke:none;" d="M110.667 78.3333L111.333 78.6667L110.667 78.3333M115 78L116 79L115 78z"/>
<path style="fill:#8695a8; stroke:none;" d="M117.333 78.6667L117.667 79.3333L117.333 78.6667M130 78L131 79L130 78z"/>
<path style="fill:#eceded; stroke:none;" d="M24.3333 79.6667L24.6667 80.3333L24.3333 79.6667z"/>
<path style="fill:#8695a8; stroke:none;" d="M37 79L38 80L37 79M94 79L95 80L94 79M114.667 79.3333L115.333 79.6667L114.667 79.3333M2 80L3 81L2 80z"/>
<path style="fill:#23548f; stroke:none;" d="M25.6667 80.3333L26.3333 80.6667L25.6667 80.3333z"/>
<path style="fill:#eceded; stroke:none;" d="M27 80L28 84L29 84L27 80M104 80L103 84L104 84L104 80z"/>
<path style="fill:#23548f; stroke:none;" d="M105.667 80.3333L106.333 80.6667L105.667 80.3333M108 80L110 82L108 80z"/>
<path style="fill:#8695a8; stroke:none;" d="M109 80L110 81L109 80M129 80L130 81L129 80M5.66667 81.3333L6.33333 81.6667L5.66667 81.3333M17 81L18 82L17 81z"/>
<path style="fill:#0a0908; stroke:none;" d="M26 81L27 82L26 81z"/>
<path style="fill:#8695a8; stroke:none;" d="M28 81L29 82L28 81M63 81L64 82L63 81z"/>
<path style="fill:#23548f; stroke:none;" d="M67 81L68 82L67 81z"/>
<path style="fill:#8695a8; stroke:none;" d="M85 81L86 82L85 81M91 81L92 82L91 81M103 81L104 82L103 81z"/>
<path style="fill:#0a0908; stroke:none;" d="M105.333 81.6667L105.667 82.3333L105.333 81.6667z"/>
<path style="fill:#8695a8; stroke:none;" d="M106 81L106 82L109 82L106 81z"/>
<path style="fill:#0a0908; stroke:none;" d="M110 81L111 82L110 81z"/>
<path style="fill:#23548f; stroke:none;" d="M111 81L113 83L111 81z"/>
<path style="fill:#8695a8; stroke:none;" d="M112 81L113 82L112 81M125.667 81.3333L126.333 81.6667L125.667 81.3333M9 82L10 83L9 82M15 82L16 83L15 82z"/>
<path style="fill:#23548f; stroke:none;" d="M17 82L18 83L17 82z"/>
<path style="fill:#0a0908; stroke:none;" d="M18 82L19 83L18 82z"/>
<path style="fill:#23548f; stroke:none;" d="M19 82L22 84L19 82z"/>
<path style="fill:#8695a8; stroke:none;" d="M21.6667 82.3333L22.3333 82.6667L21.6667 82.3333z"/>
<path style="fill:#23548f; stroke:none;" d="M24 82L25 83L24 82z"/>
<path style="fill:#eceded; stroke:none;" d="M25.3333 82.6667L25.6667 83.3333L25.3333 82.6667z"/>
<path style="fill:#23548f; stroke:none;" d="M26 82L26 84L28 84L26 82z"/>
<path style="fill:#8695a8; stroke:none;" d="M27 82L28 83L27 82M41 82L42 83L41 82M62 82L63 83L62 82M68 82L69 83L68 82M81 82L82 83L81 82M83.6667 82.3333L84.3333 82.6667L83.6667 82.3333M90 82L91 83L90 82M104 82L105 83L104 82M111 82L112 83L111 82z"/>
<path style="fill:#0a0908; stroke:none;" d="M113 82L114 83L113 82z"/>
<path style="fill:#23548f; stroke:none;" d="M114 82L115 83L114 82z"/>
<path style="fill:#8695a8; stroke:none;" d="M116 82L117 83L116 82M123 82L124 83L123 82M12 83L13 84L12 83M17 83L18 87L19 87L20 83L17 83z"/>
<path style="fill:#0a0908; stroke:none;" d="M22 83L22 84L25 84L22 83z"/>
<path style="fill:#8695a8; stroke:none;" d="M42 83L43 84L42 83z"/>
<path style="fill:#23548f; stroke:none;" d="M62 83L63 84L62 83z"/>
<path style="fill:#8695a8; stroke:none;" d="M69 83L70 84L69 83M82 83L83 84L82 83M89 83L90 84L89 83z"/>
<path style="fill:#23548f; stroke:none;" d="M104.667 83.3333L105.333 83.6667L104.667 83.3333z"/>
<path style="fill:#8695a8; stroke:none;" d="M114 83L115 84L114 83M119 83L120 84L119 83M23 84L23 85L26 85L23 84z"/>
<path style="fill:#0a0908; stroke:none;" d="M27 84L28 85L27 84z"/>
<path style="fill:#8695a8; stroke:none;" d="M28.6667 84.3333L29.3333 84.6667L28.6667 84.3333M44 84L45 85L44 84z"/>
<path style="fill:#23548f; stroke:none;" d="M61 84L62 85L61 84z"/>
<path style="fill:#8695a8; stroke:none;" d="M70 84L71 85L70 84M87 84L88 85L87 84M102.667 84.3333L103.333 84.6667L102.667 84.3333z"/>
<path style="fill:#0a0908; stroke:none;" d="M104 84L105 85L104 84z"/>
<path style="fill:#eceded; stroke:none;" d="M105.333 84.6667L105.667 85.3333L105.333 84.6667z"/>
<path style="fill:#8695a8; stroke:none;" d="M106 84L107 85L106 84M16 85L17 86L16 85z"/>
<path style="fill:#23548f; stroke:none;" d="M27.6667 85.3333L28.3333 85.6667L27.6667 85.3333z"/>
<path style="fill:#eceded; stroke:none;" d="M29 85L30 86L29 85z"/>
<path style="fill:#8695a8; stroke:none;" d="M45 85L46 86L45 85z"/>
<path style="fill:#23548f; stroke:none;" d="M60 85L61 86L60 85z"/>
<path style="fill:#8695a8; stroke:none;" d="M86 85L87 86L86 85z"/>
<path style="fill:#eceded; stroke:none;" d="M102 85L100 89L101 89L102 85z"/>
<path style="fill:#23548f; stroke:none;" d="M103.667 85.3333L104.333 85.6667L103.667 85.3333M106 85L107 86L106 85z"/>
<path style="fill:#8695a8; stroke:none;" d="M112 85L114 87L114 85L112 85M115 85L116 86L115 85z"/>
<path style="fill:#23548f; stroke:none;" d="M19 86L20 87L19 86z"/>
<path style="fill:#8695a8; stroke:none;" d="M25 86L25 87L28 87L25 86z"/>
<path style="fill:#0a0908; stroke:none;" d="M28 86L30 90L31 90L28 86z"/>
<path style="fill:#8695a8; stroke:none;" d="M29 86L29 87L30 89L31 89L29 86M47 86L48 87L47 86z"/>
<path style="fill:#23548f; stroke:none;" d="M59 86L60 87L59 86M71 86L72 87L71 86z"/>
<path style="fill:#8695a8; stroke:none;" d="M84 86L85 87L84 86M102 86L103 87L102 86z"/>
<path style="fill:#0a0908; stroke:none;" d="M103 86L104 87L103 86z"/>
<path style="fill:#8695a8; stroke:none;" d="M105.667 86.3333L106.333 86.6667L105.667 86.3333z"/>
<path style="fill:#0a0908; stroke:none;" d="M107 86L108 87L107 86z"/>
<path style="fill:#8695a8; stroke:none;" d="M108.333 86.6667L108.667 87.3333L108.333 86.6667M17.3333 87.6667L17.6667 88.3333L17.3333 87.6667z"/>
<path style="fill:#23548f; stroke:none;" d="M24.3333 87.6667L24.6667 88.3333L24.3333 87.6667z"/>
<path style="fill:#0a0908; stroke:none;" d="M25.6667 87.3333L26.3333 87.6667L25.6667 87.3333z"/>
<path style="fill:#23548f; stroke:none;" d="M28 87L29 88L28 87z"/>
<path style="fill:#eceded; stroke:none;" d="M30 87L31 88L30 87z"/>
<path style="fill:#8695a8; stroke:none;" d="M72 87L73 88L72 87M100 87L101 88L100 87z"/>
<path style="fill:#23548f; stroke:none;" d="M102.667 87.3333L103.333 87.6667L102.667 87.3333M109 87L109 88L112 89L109 87z"/>
<path style="fill:#8695a8; stroke:none;" d="M111 87L113 89L113 87L111 87M114 87L115 88L114 87z"/>
<path style="fill:#23548f; stroke:none;" d="M22.3333 88.6667L22.6667 89.3333L22.3333 88.6667z"/>
<path style="fill:#0a0908; stroke:none;" d="M23 88L24 89L23 88z"/>
<path style="fill:#8695a8; stroke:none;" d="M25 88L26 89L25 88z"/>
<path style="fill:#eceded; stroke:none;" d="M31 88L35 93L31 88z"/>
<path style="fill:#8695a8; stroke:none;" d="M50 88L51 89L50 88z"/>
<path style="fill:#23548f; stroke:none;" d="M59 88L60 89L59 88z"/>
<path style="fill:#8695a8; stroke:none;" d="M81 88L82 89L81 88M98 90L98 91L102 89L103 90L102 93C103.806 89.3384 101.055 88.9559 98 90z"/>
<path style="fill:#0a0908; stroke:none;" d="M102 88L103 89L102 88z"/>
<path style="fill:#8695a8; stroke:none;" d="M110 88L111 89L110 88M117 88L118 89L117 88z"/>
<path style="fill:#23548f; stroke:none;" d="M20 89L21 90L20 89z"/>
<path style="fill:#0a0908; stroke:none;" d="M21 89L22 90L21 89z"/>
<path style="fill:#8695a8; stroke:none;" d="M23 89L24 90L23 89M27.3333 89.6667L27.6667 90.3333L27.3333 89.6667M29 89L30 90L29 89M32 89L33 90L32 89M52 89L53 90L52 89z"/>
<path style="fill:#23548f; stroke:none;" d="M60 89L60 90L71 90L60 89z"/>
<path style="fill:#8695a8; stroke:none;" d="M71 89L72 90L71 89M79 89L80 90L79 89z"/>
<path style="fill:#0a0908; stroke:none;" d="M101 89L102 90L101 89z"/>
<path style="fill:#8695a8; stroke:none;" d="M111 89L110 92L111 89M15 90L16 91L15 90M18 90L19 91L18 90M20.6667 90.3333L21.3333 90.6667L20.6667 90.3333z"/>
<path style="fill:#23548f; stroke:none;" d="M28 90L27 92L29 92L28 90z"/>
<path style="fill:#eceded; stroke:none;" d="M29 90L29 92L31 92L29 90z"/>
<path style="fill:#23548f; stroke:none;" d="M30.6667 90.3333L31.3333 90.6667L30.6667 90.3333z"/>
<path style="fill:#8695a8; stroke:none;" d="M33 90L34 91L33 90M54 90L55 91L54 90M77 90L78 91L77 90z"/>
<path style="fill:#eceded; stroke:none;" d="M99 90L96 94L99 90z"/>
<path style="fill:#23548f; stroke:none;" d="M99 92L102 91L99 92z"/>
<path style="fill:#eceded; stroke:none;" d="M102 90L103 91L102 90z"/>
<path style="fill:#8695a8; stroke:none;" d="M113 90L114 91L113 90M116 90L117 91L116 90M19 91L20 92L19 91z"/>
<path style="fill:#0a0908; stroke:none;" d="M31 91L36 96L31 91z"/>
<path style="fill:#8695a8; stroke:none;" d="M32 91L33 92L32 91M57 91L58 92L57 91M74 91L75 92L74 91z"/>
<path style="fill:#0a0908; stroke:none;" d="M100 91L98 94L100 91z"/>
<path style="fill:#23548f; stroke:none;" d="M103 91L103 93L105 93L103 91z"/>
<path style="fill:#8695a8; stroke:none;" d="M112 91L113 92L112 91M26 92L27 93L26 92z"/>
<path style="fill:#0a0908; stroke:none;" d="M27 92L25 93L25 94L27 92z"/>
<path style="fill:#8695a8; stroke:none;" d="M28 92L28 93L32 93L31 95L32 95L33 93L28 92M33 92L34 93L33 92M59 92L60 93L59 92M72 92L73 93L72 92M98 92L99 93L98 92M100 92L101 93L100 92M105 92L105 95L106 95L105 92z"/>
<path style="fill:#eceded; stroke:none;" d="M15 93L16 94L15 93z"/>
<path style="fill:#8695a8; stroke:none;" d="M20 93L21 94L20 93z"/>
<path style="fill:#23548f; stroke:none;" d="M24.3333 93.6667L24.6667 94.3333L24.3333 93.6667M27 93L27 95L29 95L27 93z"/>
<path style="fill:#eceded; stroke:none;" d="M28 93L29 94L28 93z"/>
<path style="fill:#23548f; stroke:none;" d="M30.3333 93.6667L30.6667 94.3333L30.3333 93.6667z"/>
<path style="fill:#eceded; stroke:none;" d="M31 93L32 94L31 93z"/>
<path style="fill:#8695a8; stroke:none;" d="M34 93L34 94L39 97L34 93M47 93L48 94L47 93z"/>
<path style="fill:#eceded; stroke:none;" d="M48 93L46 97L46 98L55 104L55 97L53 95L48 93z"/>
<path style="fill:#8695a8; stroke:none;" d="M49 93L50 94L49 93M62 93L63 94L62 93M69 93L70 94L69 93M82 93L83 94L82 93z"/>
<path style="fill:#eceded; stroke:none;" d="M83 93C78.7577 95.8607 77.6329 97.8906 78 103L75 99L64 100L64 105L61 103L61 102L63 100L57 99L56 105L70 106L69 101L71 105L86 98L86 97L83 97L83 93z"/>
<path style="fill:#8695a8; stroke:none;" d="M84 93L85 94L84 93M97 93L89 99L89 100L91 102L92 102L98 94L97 93M99 93L100 94L99 93z"/>
<path style="fill:#0a0908; stroke:none;" d="M105 93L105 94L108 94L105 93z"/>
<path style="fill:#23548f; stroke:none;" d="M108.667 93.3333L109.333 93.6667L108.667 93.3333z"/>
<path style="fill:#8695a8; stroke:none;" d="M111 93L112 94L111 93M23 94L23 96L25 96L23 94z"/>
<path style="fill:#eceded; stroke:none;" d="M25.3333 94.6667L25.6667 95.3333L25.3333 94.6667z"/>
<path style="fill:#8695a8; stroke:none;" d="M26.3333 94.6667L26.6667 95.3333L26.3333 94.6667z"/>
<path style="fill:#0a0908; stroke:none;" d="M29 94L25 98L30 95L29 94z"/>
<path style="fill:#23548f; stroke:none;" d="M33 94L34 95L33 94z"/>
<path style="fill:#eceded; stroke:none;" d="M35 94L36 95L35 94z"/>
<path style="fill:#8695a8; stroke:none;" d="M51 94L52 95L51 94M65 94L65 97L67 97L67 94L65 94M80 94L81 95L80 94z"/>
<path style="fill:#23548f; stroke:none;" d="M93 100L99 94L93 100z"/>
<path style="fill:#8695a8; stroke:none;" d="M108 94L109 95L108 94M21 95L22 96L21 95M29 95L30 96L29 95z"/>
<path style="fill:#23548f; stroke:none;" d="M34 95L35 96L34 95z"/>
<path style="fill:#eceded; stroke:none;" d="M36 95L43 101L36 95z"/>
<path style="fill:#8695a8; stroke:none;" d="M48 95L49 96L48 95M53 95L52 96L52 97L53 98L54 98L55 97L55 96L53 95M57 95C57.7963 98.7158 60.6373 98 64 98L63 95L57 95M68 95L68 98L71 99L72 99L72 95L68 95M73 98L74 98C74.6534 96.0399 75 95.446 75 98L76 98L75 95L73 98M78 95L79 96L78 95M83 95L84 96L83 95z"/>
<path style="fill:#eceded; stroke:none;" d="M95 95L96 96L95 95z"/>
<path style="fill:#8695a8; stroke:none;" d="M106 95L106 98L108 97L108 96L106 95M110 95L111 96L110 95M22 96L23 97L22 96z"/>
<path style="fill:#23548f; stroke:none;" d="M24.6667 96.3333L25.3333 96.6667L24.6667 96.3333M27 96L28 97L27 96M35 96L39 100L35 96z"/>
<path style="fill:#8695a8; stroke:none;" d="M77.3333 96.6667L77.6667 97.3333L77.3333 96.6667M79 96L80 99L81 99L79 96z"/>
<path style="fill:#eceded; stroke:none;" d="M94 96L95 97L94 96z"/>
<path style="fill:#8695a8; stroke:none;" d="M109 96L110 97L109 96M13 97L14 98L13 97M24 97L25 98L24 97M26 97L27 98L26 97z"/>
<path style="fill:#0a0908; stroke:none;" d="M37 97L38 98L37 97z"/>
<path style="fill:#eceded; stroke:none;" d="M66 97L67 98L66 97M92 97L93 98L92 97z"/>
<path style="fill:#8695a8; stroke:none;" d="M118 97L119 98L118 97M23 98L24 99L23 98M25 98L26 99L25 98z"/>
<path style="fill:#0a0908; stroke:none;" d="M38 98L41 101L38 98z"/>
<path style="fill:#8695a8; stroke:none;" d="M39 98L40 99L39 98M47 98L48 99L47 98M51 98L52 99L51 98M55 98L57 100L57 98L55 98M75 100L78 100L77 98L75 100M84 98L85 99L84 98z"/>
<path style="fill:#eceded; stroke:none;" d="M91 98L92 99L91 98z"/>
<path style="fill:#0a0908; stroke:none;" d="M93 98L94 99L93 98z"/>
<path style="fill:#8695a8; stroke:none;" d="M24 99L25 100L24 99M33 99L34 102L35 102L33 99M40 99L41 100L40 99M42 99L43 100L42 99M49 99L50 100L49 99M58.6667 99.3333L59.3333 99.6667L58.6667 99.3333M72.6667 99.3333L73.3333 99.6667L72.6667 99.3333M82 99L83 100L82 99z"/>
<path style="fill:#eceded; stroke:none;" d="M90 99L81 104L81 105L91 100L90 99z"/>
<path style="fill:#0a0908; stroke:none;" d="M92 99L93 100L92 99z"/>
<path style="fill:#8695a8; stroke:none;" d="M97 102L98 102L100 100L97 102M107 99L108 100L107 99M25 100L26 101L25 100z"/>
<path style="fill:#23548f; stroke:none;" d="M32.3333 100.667L32.6667 101.333L32.3333 100.667z"/>
<path style="fill:#0a0908; stroke:none;" d="M33.3333 100.667L33.6667 101.333L33.3333 100.667z"/>
<path style="fill:#8695a8; stroke:none;" d="M39 100L40 101L39 100z"/>
<path style="fill:#23548f; stroke:none;" d="M41 100L43 103L41 100z"/>
<path style="fill:#8695a8; stroke:none;" d="M43.3333 100.667L43.6667 101.333L43.3333 100.667M50.3333 100.667L50.6667 101.333L50.3333 100.667z"/>
<path style="fill:#23548f; stroke:none;" d="M56 100L57 101L56 100z"/>
<path style="fill:#8695a8; stroke:none;" d="M63 100L61 102L61 103L64 105L63 100z"/>
<path style="fill:#23548f; stroke:none;" d="M75 100L76 101L75 100z"/>
<path style="fill:#eceded; stroke:none;" d="M76 100L77 101L76 100z"/>
<path style="fill:#23548f; stroke:none;" d="M77 100L77 103L78 103L77 100z"/>
<path style="fill:#8695a8; stroke:none;" d="M81.3333 100.667L81.6667 101.333L81.3333 100.667z"/>
<path style="fill:#23548f; stroke:none;" d="M90 100L89 103L90 103L90 100z"/>
<path style="fill:#0a0908; stroke:none;" d="M91 100L92 101L91 100M98.3333 100.667L98.6667 101.333L98.3333 100.667z"/>
<path style="fill:#23548f; stroke:none;" d="M99.3333 100.667L99.6667 101.333L99.3333 100.667z"/>
<path style="fill:#8695a8; stroke:none;" d="M106 100L107 101L106 100M40 101L41 102L40 101z"/>
<path style="fill:#0a0908; stroke:none;" d="M42 101L43 102L42 101z"/>
<path style="fill:#eceded; stroke:none;" d="M44 101L44 102L51 105L51 104L44 101z"/>
<path style="fill:#8695a8; stroke:none;" d="M45 101L46 102L45 101M55 101L55 103L57 101L55 101M69 101L68 103L74 108L71 105L69 101M75.6667 101.333L76.3333 101.667L75.6667 101.333M86 101L87 102L86 101M88 101L89 102L88 101z"/>
<path style="fill:#0a0908; stroke:none;" d="M90 101L91 102L90 101M43 102L44 103L43 102z"/>
<path style="fill:#23548f; stroke:none;" d="M44.3333 102.667L44.6667 103.333L44.3333 102.667z"/>
<path style="fill:#8695a8; stroke:none;" d="M47 102L48 103L47 102z"/>
<path style="fill:#23548f; stroke:none;" d="M69 102L70 103L69 102z"/>
<path style="fill:#8695a8; stroke:none;" d="M84 102L85 103L84 102z"/>
<path style="fill:#23548f; stroke:none;" d="M87.3333 102.667L87.6667 103.333L87.3333 102.667z"/>
<path style="fill:#0a0908; stroke:none;" d="M88 102L89 103L88 102z"/>
<path style="fill:#8695a8; stroke:none;" d="M41 103L41 104L44 104L44 103L41 103z"/>
<path style="fill:#eceded; stroke:none;" d="M42 103L43 104L42 103z"/>
<path style="fill:#0a0908; stroke:none;" d="M45 103L48 105L48 104L45 103z"/>
<path style="fill:#8695a8; stroke:none;" d="M46 103L47 104L46 103M49 103L50 104L49 103z"/>
<path style="fill:#23548f; stroke:none;" d="M55 103L56 104L55 103M63 103L64 104L63 103z"/>
<path style="fill:#8695a8; stroke:none;" d="M82 103L83 104L82 103M85 103L87 105L85 103z"/>
<path style="fill:#0a0908; stroke:none;" d="M86 103L87 104L86 103z"/>
<path style="fill:#8695a8; stroke:none;" d="M88 103L88 104L92 105L92 104L88 103z"/>
<path style="fill:#eceded; stroke:none;" d="M89 103L90 104L89 103z"/>
<path style="fill:#8695a8; stroke:none;" d="M120 103L121 104L120 103z"/>
<path style="fill:#0a0908; stroke:none;" d="M41 104L42 105L41 104z"/>
<path style="fill:#8695a8; stroke:none;" d="M45 104L46 105L45 104M48 104L45 107L46 108L48 104M51.3333 104.667L51.6667 105.333L51.3333 104.667M54 104L54 107L56 104L54 104M77 104L78 107L77 104M80.3333 104.667L80.6667 105.333L80.3333 104.667M83 104L86 107L83 104z"/>
<path style="fill:#0a0908; stroke:none;" d="M84.6667 104.333L85.3333 104.667L84.6667 104.333z"/>
<path style="fill:#23548f; stroke:none;" d="M40.6667 105.333L41.3333 105.667L40.6667 105.333z"/>
<path style="fill:#eceded; stroke:none;" d="M42 105L43 106L42 105z"/>
<path style="fill:#0a0908; stroke:none;" d="M43.3333 105.667L43.6667 106.333L43.3333 105.667z"/>
<path style="fill:#23548f; stroke:none;" d="M48 105L49 106L48 105z"/>
<path style="fill:#0a0908; stroke:none;" d="M49 105L50 106L49 105z"/>
<path style="fill:#23548f; stroke:none;" d="M50.3333 105.667L50.6667 106.333L50.3333 105.667z"/>
<path style="fill:#eceded; stroke:none;" d="M52.6667 105.333L53.3333 105.667L52.6667 105.333z"/>
<path style="fill:#23548f; stroke:none;" d="M56.6667 105.333L57.3333 105.667L56.6667 105.333z"/>
<path style="fill:#8695a8; stroke:none;" d="M58 108L61 105L58 108z"/>
<path style="fill:#23548f; stroke:none;" d="M74.6667 105.333L75.3333 105.667L74.6667 105.333z"/>
<path style="fill:#eceded; stroke:none;" d="M78.6667 105.333L79.3333 105.667L78.6667 105.333z"/>
<path style="fill:#23548f; stroke:none;" d="M81.3333 105.667L81.6667 106.333L81.3333 105.667z"/>
<path style="fill:#0a0908; stroke:none;" d="M82.6667 105.333L83.3333 105.667L82.6667 105.333z"/>
<path style="fill:#23548f; stroke:none;" d="M88 105L89 106L88 105z"/>
<path style="fill:#8695a8; stroke:none;" d="M119 105L120 106L119 105M13 106L14 107L13 106M39 106L39 107L44 108L44 107L39 106z"/>
<path style="fill:#0a0908; stroke:none;" d="M40 106L41 107L40 106z"/>
<path style="fill:#eceded; stroke:none;" d="M46 109L49 106L46 109z"/>
<path style="fill:#8695a8; stroke:none;" d="M49 106L47 111L48 111L51 109L49 106z"/>
<path style="fill:#0a0908; stroke:none;" d="M51.6667 106.333L52.3333 106.667L51.6667 106.333z"/>
<path style="fill:#23548f; stroke:none;" d="M53.3333 106.667L53.6667 107.333L53.3333 106.667z"/>
<path style="fill:#eceded; stroke:none;" d="M55 106L55 107L58 107L55 106z"/>
<path style="fill:#23548f; stroke:none;" d="M61 106L61 107L71 107L61 106z"/>
<path style="fill:#eceded; stroke:none;" d="M74 106L74 107L77 107L74 106z"/>
<path style="fill:#23548f; stroke:none;" d="M78 106L78 108L80 106L78 106z"/>
<path style="fill:#0a0908; stroke:none;" d="M80 106L81 107L80 106z"/>
<path style="fill:#8695a8; stroke:none;" d="M82 106L84 108L82 106z"/>
<path style="fill:#eceded; stroke:none;" d="M83.6667 106.333L84.3333 106.667L83.6667 106.333z"/>
<path style="fill:#23548f; stroke:none;" d="M86 106L87 107L86 106z"/>
<path style="fill:#8695a8; stroke:none;" d="M88 106L89 107L88 106z"/>
<path style="fill:#0a0908; stroke:none;" d="M89 106L90 107L89 106z"/>
<path style="fill:#23548f; stroke:none;" d="M90 106L91 107L90 106z"/>
<path style="fill:#0a0908; stroke:none;" d="M91 106L92 107L91 106z"/>
<path style="fill:#23548f; stroke:none;" d="M92 106L93 107L92 106z"/>
<path style="fill:#8695a8; stroke:none;" d="M100 106L101 107L100 106M32 107L33 108L32 107z"/>
<path style="fill:#23548f; stroke:none;" d="M39.3333 107.667L39.6667 108.333L39.3333 107.667M42 107L43 108L42 107M45 107L46 108L45 107z"/>
<path style="fill:#8695a8; stroke:none;" d="M52 107L53 108L52 107z"/>
<path style="fill:#0a0908; stroke:none;" d="M54.6667 107.333L55.3333 107.667L54.6667 107.333z"/>
<path style="fill:#23548f; stroke:none;" d="M56 107L56 109L58 109L58 107L56 107z"/>
<path style="fill:#eceded; stroke:none;" d="M60 107L60 108L72 108L60 107z"/>
<path style="fill:#23548f; stroke:none;" d="M74 107L74 109L76 107L74 107z"/>
<path style="fill:#0a0908; stroke:none;" d="M76.6667 107.333L77.3333 107.667L76.6667 107.333z"/>
<path style="fill:#8695a8; stroke:none;" d="M79 107L81 109L79 107z"/>
<path style="fill:#23548f; stroke:none;" d="M84 107L85 108L84 107z"/>
<path style="fill:#8695a8; stroke:none;" d="M90 107L90 110L91 110L90 107z"/>
<path style="fill:#eceded; stroke:none;" d="M91.3333 107.667L91.6667 108.333L91.3333 107.667z"/>
<path style="fill:#8695a8; stroke:none;" d="M92 107L92 109L94 109L94 107L92 107M99 107L100 108L99 107M33 108L34 109L33 108M38 108L39 109L38 108z"/>
<path style="fill:#0a0908; stroke:none;" d="M45 108L46 109L45 108M49 108L50 109L49 108z"/>
<path style="fill:#8695a8; stroke:none;" d="M55 108L57 111L55 108z"/>
<path style="fill:#0a0908; stroke:none;" d="M58 108L58 109L64 109L58 108z"/>
<path style="fill:#23548f; stroke:none;" d="M64 108L64 110L68 110L68 108L64 108z"/>
<path style="fill:#0a0908; stroke:none;" d="M68 108L68 109L74 109L68 108z"/>
<path style="fill:#8695a8; stroke:none;" d="M75.6667 108.333L76.3333 108.667L75.6667 108.333z"/>
<path style="fill:#eceded; stroke:none;" d="M77 108L77 109L81 111L77 108z"/>
<path style="fill:#23548f; stroke:none;" d="M81.3333 108.667L81.6667 109.333L81.3333 108.667z"/>
<path style="fill:#0a0908; stroke:none;" d="M84 108L85 111L86 111L84 108z"/>
<path style="fill:#8695a8; stroke:none;" d="M86 108L88 111L85 112L85 113L89 112L86 108M98 108L99 109L98 108z"/>
<path style="fill:#23548f; stroke:none;" d="M44 109L44 110L47 110L44 109M48 109L49 110L48 109z"/>
<path style="fill:#0a0908; stroke:none;" d="M52 109L53 110L52 109z"/>
<path style="fill:#8695a8; stroke:none;" d="M53 109L54 110L53 109M60 109L61 112L64 110L60 109M68 109L68 110L69 117L73 114L72 109L68 109z"/>
<path style="fill:#23548f; stroke:none;" d="M77 109L78 110L77 109z"/>
<path style="fill:#8695a8; stroke:none;" d="M78 109C78.4028 112.457 81.1212 112.95 83 110L81 112L80 112L78 109M84 109L85 110L84 109z"/>
<path style="fill:#23548f; stroke:none;" d="M91 109L92 110L91 109z"/>
<path style="fill:#8695a8; stroke:none;" d="M16 110L17 111L16 110M36 110L37 111L36 110z"/>
<path style="fill:#0a0908; stroke:none;" d="M44 110L45 111L44 110M48 110L49 111L48 110z"/>
<path style="fill:#8695a8; stroke:none;" d="M51 110L53 112L51 110z"/>
<path style="fill:#23548f; stroke:none;" d="M52 110L53 111L52 110z"/>
<path style="fill:#0a0908; stroke:none;" d="M55.3333 110.667L55.6667 111.333L55.3333 110.667z"/>
<path style="fill:#8695a8; stroke:none;" d="M73 110L74 111L73 110z"/>
<path style="fill:#0a0908; stroke:none;" d="M74 110L75 111L74 110z"/>
<path style="fill:#8695a8; stroke:none;" d="M75 110L74 114L75 114L75 110z"/>
<path style="fill:#0a0908; stroke:none;" d="M78 110L79 111L78 110z"/>
<path style="fill:#23548f; stroke:none;" d="M79 110L80 111L79 110z"/>
<path style="fill:#eceded; stroke:none;" d="M86.6667 110.333L87.3333 110.667L86.6667 110.333z"/>
<path style="fill:#8695a8; stroke:none;" d="M95 110L96 111L95 110M115 110L116 111L115 110M17 111L18 112L17 111M43 111L44 112L43 111z"/>
<path style="fill:#23548f; stroke:none;" d="M44 111L45 112L44 111M47.6667 111.333L48.3333 111.667L47.6667 111.333M51 111L52 112L51 111M60 111L61 112L60 111z"/>
<path style="fill:#8695a8; stroke:none;" d="M63 111L63 116L66 113L65 113L65 115L64 115L63 111z"/>
<path style="fill:#23548f; stroke:none;" d="M64 111L64 115L65 115L64 111z"/>
<path style="fill:#8695a8; stroke:none;" d="M65 111L66 112L65 111z"/>
<path style="fill:#23548f; stroke:none;" d="M66 111L67 112L66 111z"/>
<path style="fill:#8695a8; stroke:none;" d="M68 111L69 112L68 111z"/>
<path style="fill:#0a0908; stroke:none;" d="M69 111L69 114L70 114L69 111z"/>
<path style="fill:#23548f; stroke:none;" d="M71 111L73 113L73 111L71 111M74 111L75 112L74 111z"/>
<path style="fill:#0a0908; stroke:none;" d="M80 111L81 112L80 111z"/>
<path style="fill:#23548f; stroke:none;" d="M85.6667 111.333L86.3333 111.667L85.6667 111.333z"/>
<path style="fill:#8695a8; stroke:none;" d="M18 112L19 113L18 112M39 112L40 113L39 112M46 112L47 113L46 112z"/>
<path style="fill:#0a0908; stroke:none;" d="M47 112L48 113L47 112M51 112L52 113L51 112z"/>
<path style="fill:#8695a8; stroke:none;" d="M54 112L57 116L54 112z"/>
<path style="fill:#23548f; stroke:none;" d="M55.3333 112.667L55.6667 113.333L55.3333 112.667z"/>
<path style="fill:#0a0908; stroke:none;" d="M60 112L60 115L61 115L60 112z"/>
<path style="fill:#eceded; stroke:none;" d="M65 112L66 113L65 112z"/>
<path style="fill:#0a0908; stroke:none;" d="M66.3333 112.667L66.6667 113.333L66.3333 112.667z"/>
<path style="fill:#8695a8; stroke:none;" d="M67 112L68 113L67 112z"/>
<path style="fill:#eceded; stroke:none;" d="M70 112L71 113L70 112z"/>
<path style="fill:#23548f; stroke:none;" d="M75 112L76 113L75 112M78 112L79 113L78 112M81 112L83 114L81 112z"/>
<path style="fill:#0a0908; stroke:none;" d="M82 112L83 113L82 112z"/>
<path style="fill:#8695a8; stroke:none;" d="M92 112L93 113L92 112M113 112L114 113L113 112M19 113L20 114L19 113M41 113L42 114L41 113M50 113L50 115L52 115L50 113z"/>
<path style="fill:#23548f; stroke:none;" d="M51 113L52 114L51 113M71 113L72 114L71 113z"/>
<path style="fill:#0a0908; stroke:none;" d="M75.3333 113.667L75.6667 114.333L75.3333 113.667z"/>
<path style="fill:#8695a8; stroke:none;" d="M78 113L78 115L80 115L78 113M90 113L91 114L90 113M112 113L113 114L112 113M20 114L21 115L20 114M43 114L44 115L43 114z"/>
<path style="fill:#23548f; stroke:none;" d="M54 114L55 115L54 114z"/>
<path style="fill:#8695a8; stroke:none;" d="M59 114L61 117L59 114z"/>
<path style="fill:#23548f; stroke:none;" d="M69.3333 114.667L69.6667 115.333L69.3333 114.667z"/>
<path style="fill:#8695a8; stroke:none;" d="M88 114L89 115L88 114M21 115L22 116L21 115M45 115L46 116L45 115z"/>
<path style="fill:#23548f; stroke:none;" d="M57 115L58 116L57 115M60 115L61 116L60 115M75 115L76 116L75 115z"/>
<path style="fill:#8695a8; stroke:none;" d="M76 115L77 116L76 115M86 115L87 116L86 115M110 115L111 116L110 115M41 116L42 117L41 116M48 116L49 117L48 116z"/>
<path style="fill:#23548f; stroke:none;" d="M63.6667 116.333L64.3333 116.667L63.6667 116.333z"/>
<path style="fill:#8695a8; stroke:none;" d="M83 116L84 117L83 116M90 116L91 117L90 116M43 117L44 118L43 117M51 117L52 118L51 117M80 117L81 118L80 117M88 117L89 118L88 117M25 118L26 119L25 118M35 118L36 119L35 118z"/>
<path style="fill:#eceded; stroke:none;" d="M45 118L46 119L45 118z"/>
<path style="fill:#8695a8; stroke:none;" d="M46 118L47 119L46 118M54.6667 118.333L55.3333 118.667L54.6667 118.333M76.6667 118.333L77.3333 118.667L76.6667 118.333M96 118L97 119L96 118M106 118L107 119L106 118M26 119L27 120L26 119M34 119L35 120L34 119M48 119L49 120L48 119M61 119L61 120L71 120L61 119M83 119L84 120L83 119M97 119L98 120L97 119M105 119L106 120L105 119M28 120L29 121L28 120M32 120L33 121L32 120M99 120L100 121L99 120M103 120L104 121L103 120M52 130L53 131L52 130M79 130L80 131L79 130M55 131L56 132L55 131M76 131L77 132L76 131z"/>
<path style="fill:#eceded; stroke:none;" d="M62.6667 132.333L63.3333 132.667L62.6667 132.333z"/>
<path style="fill:#8695a8; stroke:none;" d="M64 132L64 133L68 133L64 132z"/>
<path style="fill:#eceded; stroke:none;" d="M68 132L69 133L68 132z"/>
</svg>
